HIERARCHY
ROOT Hips
{
	OFFSET 0.000000 0.000000 0.000000 
	CHANNELS 6 Xposition Yposition Zposition Zrotation Yrotation Xrotation
	JOINT LeftUpLeg
	{
		OFFSET 1.363060 -1.794630 0.839290 
		CHANNELS 3 Zrotation Yrotation Xrotation
		JOINT LeftLeg
		{
			OFFSET 2.448110 -6.726130 0.000000 
			CHANNELS 3 Zrotation Yrotation Xrotation
			JOINT LeftFoot
			{
				OFFSET 2.562200 -7.039590 0.000000 
				CHANNELS 3 Zrotation Yrotation Xrotation
				JOINT LeftToeBase
				{
					OFFSET 0.157640 -0.433110 2.322550 
					CHANNELS 3 Zrotation Yrotation Xrotation
					End Site
					{
						OFFSET 0.000000 0.000000 0.000000 
					}
				}
			}
		}
	}
	JOINT RightUpLeg
	{
		OFFSET -1.305520 -1.794630 0.839290 
		CHANNELS 3 Zrotation Yrotation Xrotation
		JOINT RightLeg
		{
			OFFSET -2.542530 -6.985550 0.000000 
			CHANNELS 3 Zrotation Yrotation Xrotation
			JOINT RightFoot
			{
				OFFSET -2.568260 -7.056230 0.000000 
				CHANNELS 3 Zrotation Yrotation Xrotation
				JOINT RightToeBase
				{
					OFFSET -0.164730 -0.452590 2.363150 
					CHANNELS 3 Zrotation Yrotation Xrotation
					End Site
					{
						OFFSET 0.000000 0.000000 0.000000 
					}
				}
			}
		}
	}
	JOINT Spine
	{
		OFFSET 0.028270 2.035590 -0.193380 
		CHANNELS 3 Zrotation Yrotation Xrotation
		JOINT Spine1
		{
			OFFSET 0.056720 2.048850 -0.042750 
			CHANNELS 3 Zrotation Yrotation Xrotation
			JOINT Neck1
			{
				OFFSET -0.054170 1.746240 0.172020 
				CHANNELS 3 Zrotation Yrotation Xrotation
				JOINT Head
				{
					OFFSET 0.104070 1.761360 -0.123970 
					CHANNELS 3 Zrotation Yrotation Xrotation
					End Site
					{
						OFFSET 0.000000 0.000000 0.000000 
					}
				}
			}
			JOINT LeftArm
			{
				OFFSET 3.362410 1.200890 -0.311210 
				CHANNELS 3 Zrotation Yrotation Xrotation
				JOINT LeftForeArm
				{
					OFFSET 4.983000 -0.000000 -0.000000 
					CHANNELS 3 Zrotation Yrotation Xrotation
					JOINT LeftHand
					{
						OFFSET 3.483560 -0.000000 -0.000000 
						CHANNELS 3 Zrotation Yrotation Xrotation
						JOINT LeftHandIndex1
						{
							OFFSET 0.715260 -0.000000 -0.000000 
							CHANNELS 3 Zrotation Yrotation Xrotation
							End Site
							{
								OFFSET 0.000000 0.000000 0.000000 
							}
						}
					}
				}
			}
			JOINT RightArm
			{
				OFFSET -3.136600 1.374050 -0.404650 
				CHANNELS 3 Zrotation Yrotation Xrotation
				JOINT RightForeArm
				{
					OFFSET -5.241900 -0.000000 -0.000000 
					CHANNELS 3 Zrotation Yrotation Xrotation
					JOINT RightHand
					{
						OFFSET -3.444170 -0.000000 -0.000000 
						CHANNELS 3 Zrotation Yrotation Xrotation
						JOINT RightHandIndex1
						{
							OFFSET -0.622530 -0.000000 -0.000000 
							CHANNELS 3 Zrotation Yrotation Xrotation
							End Site
							{
								OFFSET 0.000000 0.000000 0.000000 
							}
						}
					}
				}
			}
		}
	}
}
MOTION
Frames: 7
Frame Time: 0.041667
48.225411 17.118474 -19.972848 -171.970269 -73.197880 172.806889 -17.503084 5.631819 -4.531539 0.074707 7.627863 20.222686 -2.243877 12.139734 -13.863030 0.002300 -0.307500 -0.845000 25.249710 3.827064 -7.164651 -1.094297 -11.240439 30.517461 1.090944 -8.221134 -15.390349 -0.037400 -1.248900 3.434000 1.251603 0.316202 -1.401624 -2.125016 0.203273 5.286467 5.225982 3.713042 9.799629 -1.573000 2.259700 3.784500 -82.072793 -0.289457 17.812697 7.159240 -19.694462 -2.586656 -1.369045 -1.755772 -16.124516 -7.125000 0.000000 0.000000 78.124242 -4.548002 18.968728 -10.881677 24.497140 -3.991829 1.746128 0.997099 1.916635 7.125000 0.000000 0.000000 
48.227029 17.118042 -19.975331 -171.785702 -73.241937 172.629613 -17.438135 5.625231 -4.558354 0.080872 7.641351 20.262620 -2.241687 12.122907 -13.829935 0.002800 -0.341200 -0.937600 25.320564 3.824159 -7.152512 -1.090836 -11.238631 30.506495 1.101741 -8.266665 -15.432283 -0.037200 -1.245400 3.424300 1.253254 0.308207 -1.390420 -2.127392 0.201098 5.340245 5.249989 3.669143 9.770152 -1.542900 2.235100 3.766200 -82.050195 -0.374275 17.770569 7.124080 -19.639421 -2.571752 -1.370569 -1.744559 -16.078375 -7.125000 0.000000 0.000000 78.128436 -4.445152 18.987260 -10.912389 24.527111 -3.973366 1.445643 0.750426 1.945032 7.125000 0.000000 0.000000 
48.226706 17.118150 -19.977921 -171.773766 -73.266976 172.616979 -17.430904 5.597523 -4.551000 0.081234 7.642066 20.265002 -2.248531 12.146456 -13.830719 0.003100 -0.357100 -0.981300 25.336881 3.840102 -7.150531 -1.091988 -11.241539 30.514682 1.113003 -8.311095 -15.466228 -0.037100 -1.244000 3.420300 1.250062 0.303449 -1.393961 -2.137369 0.199370 5.318276 5.266997 3.576208 9.810933 -1.515200 2.192500 3.791900 -82.035147 -0.257460 17.865721 7.200631 -19.749893 -2.601450 -1.363699 -1.756697 -16.138297 -7.125000 0.000000 0.000000 78.130949 -4.502911 19.107982 -10.982050 24.617940 -4.034120 1.747209 0.990652 1.800001 7.125000 0.000000 0.000000 
48.227569 17.118474 -19.981482 -171.789542 -73.306304 172.647268 -17.423195 5.582833 -4.578357 0.081106 7.645843 20.272182 -2.241343 12.114084 -13.799332 0.002900 -0.348800 -0.958400 25.347552 3.863015 -7.159685 -1.091646 -11.243893 30.518074 1.121163 -8.347496 -15.506216 -0.036600 -1.234800 3.395100 1.249446 0.294792 -1.391230 -2.125824 0.193940 5.346756 5.278702 3.524637 9.810597 -1.502700 2.167000 3.808500 -82.020316 -0.335864 17.734818 7.114516 -19.629270 -2.569604 -1.369815 -1.748711 -16.038797 -7.125000 0.000000 0.000000 78.128440 -4.437822 19.169290 -10.999656 24.631135 -4.014701 1.526042 0.814831 1.848362 7.125000 0.000000 0.000000 
48.228217 17.118798 -19.984720 -171.773867 -73.339049 172.641268 -17.407227 5.571364 -4.590293 0.080175 7.644382 20.266727 -2.240397 12.103446 -13.770185 0.003000 -0.352300 -0.968100 25.368501 3.885864 -7.165341 -1.092501 -11.248362 30.527487 1.128977 -8.383684 -15.548646 -0.036500 -1.233300 3.390900 1.248262 0.290962 -1.389265 -2.120407 0.191790 5.361736 5.295388 3.467269 9.812630 -1.482100 2.138800 3.816300 -82.005278 -0.346619 17.698202 7.091801 -19.598477 -2.561345 -1.371079 -1.746540 -16.005949 -7.125000 0.000000 0.000000 78.128995 -4.411183 19.239280 -11.034036 24.670938 -4.025053 1.488439 0.785995 1.824735 7.125000 0.000000 0.000000 
48.228756 17.119122 -19.988174 -171.780315 -73.370774 172.659187 -17.398092 5.562869 -4.605613 0.079438 7.644349 20.264877 -2.238137 12.089048 -13.743566 0.003000 -0.354900 -0.975200 25.380686 3.902495 -7.173553 -1.093197 -11.251904 30.534783 1.135643 -8.414046 -15.582770 -0.036400 -1.231400 3.385800 1.246668 0.288587 -1.387543 -2.113450 0.190167 5.375748 5.310621 3.410705 9.813557 -1.463400 2.110800 3.822100 -81.990654 -0.355276 17.661402 7.066717 -19.565203 -2.552429 -1.372971 -1.744571 -15.975943 -7.125000 0.000000 0.000000 78.129545 -4.392812 19.310170 -11.067893 24.710524 -4.037202 1.472083 0.774754 1.800512 7.125000 0.000000 0.000000 
48.229188 17.119445 -19.991627 -171.788651 -73.402888 172.676401 -17.389706 5.556689 -4.620855 0.078988 7.644852 20.264582 -2.235108 12.071851 -13.716862 0.003100 -0.359200 -0.986900 25.389975 3.909079 -7.182919 -1.093809 -11.254717 30.540775 1.140228 -8.435836 -15.610230 -0.036400 -1.231200 3.385200 1.245041 0.286819 -1.385125 -2.106397 0.188935 5.391866 5.325167 3.356840 9.809133 -1.445600 2.083700 3.822000 -81.977083 -0.367127 17.621327 7.039419 -19.528946 -2.542610 -1.375216 -1.742253 -15.944535 -7.125000 0.000000 0.000000 78.130603 -4.375138 19.377407 -11.099535 24.747874 -4.048106 1.450167 0.759732 1.776411 7.125000 0.000000 0.000000 
